<?xml version="1.0" standalone="no"?>
<!DOCTYPE svg PUBLIC "-//W3C//DTD SVG 20010904//EN"
 "http://www.w3.org/TR/2001/REC-SVG-20010904/DTD/svg10.dtd">
<svg version="1.0" xmlns="http://www.w3.org/2000/svg"
 width="700.000000pt" height="700.000000pt" viewBox="0 0 700.000000 700.000000"
 preserveAspectRatio="xMidYMid meet">
<metadata>
Created by potrace 1.14, written by Peter Selinger 2001-2017
</metadata>
<g transform="translate(0.000000,700.000000) scale(0.100000,-0.100000)"
fill="#000000" stroke="none">
<path d="M2004 6912 c-29 -3 -36 -13 -120 -170 -150 -281 -174 -325 -213 -397
-21 -38 -58 -106 -81 -150 -80 -149 -112 -210 -140 -260 -15 -27 -49 -90 -75
-140 -26 -49 -77 -144 -112 -210 -36 -66 -82 -151 -103 -190 -21 -38 -67 -124
-102 -190 -103 -191 -147 -273 -195 -364 -25 -48 -57 -106 -71 -131 -30 -54
-141 -261 -207 -385 -63 -118 -111 -209 -145 -270 -28 -50 -49 -90 -150 -280
-29 -55 -59 -109 -67 -120 -7 -11 -13 -24 -13 -30 0 -13 1757 -13 1769 1 5 5
32 54 61 109 55 105 104 197 150 280 29 53 77 142 155 290 26 50 56 104 65
120 10 17 36 64 58 105 71 133 323 603 357 665 17 33 56 105 85 160 29 55 61
114 70 130 10 17 38 68 63 115 25 47 57 108 72 135 15 28 50 93 77 145 28 52
60 113 73 135 12 22 38 69 57 105 20 36 122 226 228 423 106 197 190 361 187
364 -6 5 -1678 10 -1733 5z"/>
<path d="M3023 5146 c-30 -58 -106 -201 -163 -306 -31 -58 -79 -145 -105 -195
-26 -49 -92 -171 -145 -270 -54 -99 -117 -216 -140 -260 -23 -44 -55 -102 -70
-130 -15 -27 -49 -90 -75 -140 -26 -49 -63 -117 -81 -151 -19 -33 -34 -65 -34
-70 0 -7 3655 -12 3737 -5 6 1 35 45 64 99 28 53 66 124 84 157 18 33 47 87
65 120 18 33 51 94 73 135 22 41 69 129 105 195 74 137 110 206 212 395 40 74
89 167 110 205 21 39 54 102 75 140 20 39 41 74 46 79 5 6 9 15 9 22 0 8 -458
11 -1876 11 l-1875 0 -16 -31z"/>
<path d="M2081 3380 c-5 -3 -57 -97 -118 -210 -184 -343 -194 -361 -261 -485
-35 -66 -81 -151 -102 -190 -70 -132 -263 -490 -295 -550 -18 -33 -70 -130
-115 -215 -45 -85 -90 -168 -100 -185 -9 -16 -38 -68 -62 -115 -41 -76 -131
-245 -215 -400 -206 -380 -492 -918 -495 -929 -2 -11 138 -13 875 -13 484 0
883 4 887 8 8 8 49 84 185 339 46 88 80 150 145 270 41 76 442 822 500 930 23
44 57 107 75 140 42 77 93 172 139 258 64 120 107 200 172 319 35 64 64 119
64 122 0 3 15 31 34 63 18 32 55 99 81 148 75 141 183 341 225 420 15 28 46
84 68 125 21 41 49 92 61 113 11 20 17 37 13 38 -30 4 -1756 3 -1761 -1z"/>
<path d="M4069 3382 c-8 -1 -30 -33 -49 -70 -19 -37 -92 -174 -162 -305 -71
-131 -128 -240 -128 -243 0 -3 -8 -18 -18 -32 -10 -15 -48 -83 -84 -152 -36
-69 -141 -264 -232 -434 -91 -170 -166 -312 -166 -316 0 -4 395 -7 877 -6
l876 1 49 90 c27 50 81 151 120 225 39 74 80 150 90 168 10 19 104 194 210
390 105 196 203 380 218 407 15 28 55 102 88 165 l61 115 -868 0 c-477 0 -874
-1 -882 -3z"/>
</g>
</svg>
